<svg width="282" height="226" viewBox="0 0 282 226" fill="none" xmlns="http://www.w3.org/2000/svg">
<style>
path {
  fill: #1f1f1f;
}
@media (prefers-color-scheme: dark) {
  path {
    fill: white;
  }
}
</style>
<path d="M256.479 0H28.2C12.69 0 0.141 12.7125 0.141 28.25V84.75C15.651 84.75 28.2 97.4625 28.2 113C28.2 128.538 15.651 141.25 0 141.25V197.75C0 213.288 12.69 226 28.2 226H253.8C269.31 226 282 213.288 282 197.75V28.25C282 12.7125 270.579 0 256.479 0ZM221.793 131.363L96.867 164.697L73.461 124.017L86.574 120.486L104.34 134.47L138.039 125.43L104.199 66.67L123.939 61.3025L180.48 114.13L214.884 104.949C218.361 104.028 222.061 104.52 225.177 106.319C228.294 108.118 230.574 111.078 231.522 114.554C232.391 118.072 231.863 121.792 230.048 124.927C228.233 128.063 225.273 130.37 221.793 131.363Z" />
</svg>
