<svg width="512" height="512" viewBox="0 0 512 512" fill="none" xmlns="http://www.w3.org/2000/svg">
<rect width="512" height="512" fill="#010101"/>
<path d="M207.49 312.119L344.55 275.988C348.4 274.963 351.287 272.592 353.212 268.877C355.137 265.161 355.587 261.381 354.56 257.537C353.533 253.694 351.287 250.811 347.822 248.889C344.357 246.967 340.7 246.519 336.85 247.544L299.12 257.537L237.52 199.881L215.96 205.263L252.92 269.838L215.96 279.062L196.71 264.456L182.08 268.3L207.49 312.119ZM379.2 379H132.8C124.33 379 117.079 375.989 111.047 369.967C105.016 363.945 102 356.706 102 348.25V286.75C110.47 286.75 117.721 283.739 123.752 277.717C129.784 271.695 132.8 264.456 132.8 256C132.8 247.544 129.784 240.305 123.752 234.283C117.721 228.261 110.47 225.25 102 225.25V163.75C102 155.294 105.016 148.055 111.047 142.033C117.079 136.011 124.33 133 132.8 133H379.2C387.67 133 394.921 136.011 400.952 142.033C406.984 148.055 410 155.294 410 163.75V348.25C410 356.706 406.984 363.945 400.952 369.967C394.921 375.989 387.67 379 379.2 379ZM379.2 348.25V163.75H132.8V202.956C142.297 208.594 149.804 216.089 155.322 225.442C160.841 234.795 163.6 244.981 163.6 256C163.6 267.019 160.841 277.205 155.322 286.558C149.804 295.911 142.297 303.406 132.8 309.044V348.25H379.2Z" fill="white"/>
</svg>
