<svg width="512" height="512" viewBox="0 0 512 512" fill="none" xmlns="http://www.w3.org/2000/svg">
<g clip-path="url(#clip0_2229_86)">
<path d="M512 0H0V512H512V0Z" fill="white"/>
<path d="M371.479 143H143.2C127.69 143 115.141 155.712 115.141 171.25V227.75C130.651 227.75 143.2 240.462 143.2 256C143.2 271.538 130.651 284.25 115 284.25V340.75C115 356.288 127.69 369 143.2 369H368.8C384.31 369 397 356.288 397 340.75V171.25C397 155.712 385.579 143 371.479 143ZM336.793 274.363L211.867 307.697L188.461 267.017L201.574 263.486L219.34 277.47L253.039 268.43L219.199 209.67L238.939 204.303L295.48 257.13L329.884 247.949C333.361 247.028 337.061 247.52 340.177 249.319C343.294 251.118 345.574 254.078 346.522 257.554C347.391 261.072 346.863 264.792 345.048 267.927C343.233 271.063 340.273 273.37 336.793 274.363Z" fill="#141414"/>
</g>
<defs>
<clipPath id="clip0_2229_86">
<rect width="512" height="512" fill="white"/>
</clipPath>
</defs>
</svg>
