<svg width="512" height="512" viewBox="0 0 512 512" fill="none" xmlns="http://www.w3.org/2000/svg">
<g clip-path="url(#clip0_2232_147)">
<path d="M512 0H0V512H512V0Z" fill="white"/>
<path d="M211.585 306.828L337.075 273.782C340.6 272.844 343.243 270.676 345.006 267.278C346.768 263.879 347.18 260.422 346.24 256.906C345.3 253.391 343.243 250.754 340.071 248.996C336.898 247.238 333.55 246.828 330.025 247.766L295.48 256.906L239.08 204.172L219.34 209.094L253.18 268.157L219.34 276.593L201.715 263.234L188.32 266.75L211.585 306.828ZM368.8 368H143.2C135.445 368 128.806 365.246 123.283 359.738C117.761 354.23 115 347.609 115 339.875V283.625C122.755 283.625 129.394 280.871 134.916 275.363C140.439 269.855 143.2 263.234 143.2 255.5C143.2 247.766 140.439 241.145 134.916 235.637C129.394 230.129 122.755 227.375 115 227.375V171.125C115 163.391 117.761 156.77 123.283 151.262C128.806 145.754 135.445 143 143.2 143H368.8C376.555 143 383.194 145.754 388.716 151.262C394.239 156.77 397 163.391 397 171.125V339.875C397 347.609 394.239 354.23 388.716 359.738C383.194 365.246 376.555 368 368.8 368ZM368.8 339.875V171.125H143.2V206.984C151.895 212.141 158.769 218.996 163.821 227.551C168.874 236.105 171.4 245.422 171.4 255.5C171.4 265.578 168.874 274.895 163.821 283.449C158.769 292.004 151.895 298.859 143.2 304.016V339.875H368.8Z" fill="#1F1F1F"/>
</g>
<defs>
<clipPath id="clip0_2232_147">
<rect width="512" height="512" fill="white"/>
</clipPath>
</defs>
</svg>
